IKResults
version=1
nRows=7
nColumns=42
inDegrees=yes

Units are S.I. units (second, meters, Newtons, ...)
Angles are in degrees.

endheader
time	pelvis_tilt	pelvis_list	pelvis_rotation	pelvis_tx	pelvis_ty	pelvis_tz	hip_flexion_r	hip_adduction_r	hip_rotation_r	knee_angle_r	knee_adduction_r	knee_angle_r_beta	ankle_angle_r	subtalar_angle_r	mtp_angle_r	hip_flexion_l	hip_adduction_l	hip_rotation_l	knee_angle_l	knee_adduction_l	knee_angle_l_beta	ankle_angle_l	subtalar_angle_l	mtp_angle_l	lumbar_extension	lumbar_bending	lumbar_rotation	arm_flex_r	arm_add_r	arm_rot_r	elbow_flex_r	pro_sup_r	wrist_flex_r	wrist_dev_r	arm_flex_l	arm_add_l	arm_rot_l	elbow_flex_l	pro_sup_l	wrist_flex_l	wrist_dev_l
      0.00000000	     -3.91824783	     -2.43170975	      2.95368056	      0.57211214	      0.95906036	      0.04548627	      6.64756470	     -1.46923417	    -14.83871324	     10.42504735	      6.47602164	      0.18195140	     10.75620354	     -9.24131757	     12.28965570	     33.51196313	     -5.01743852	     -2.60080732	     13.13968577	      5.09547410	      0.22933078	     18.07217749	      7.13760032	      0.13962320	    -14.84275294	      1.27450066	     -6.65105450	     -7.87661499	    -33.08177615	     32.61094919	     97.56804017	     87.59957489	      0.00000000	      0.00000000	    -11.70259294	    -31.54686239	     83.72981531	      2.90217787	     85.90553396	      0.00000000	      0.00000000
      0.00665753	     -3.82623744	     -2.41125807	      2.95019302	      0.57212631	      0.95920073	      0.04559861	      6.52592432	     -1.47227311	    -14.82120870	     10.37649984	      6.47602164	      0.18110409	     10.64588868	     -9.24421722	     11.79684397	     33.38191720	     -5.02773369	     -2.71441262	     13.11957290	      5.09547410	      0.22897974	     18.08907649	      6.18415525	      0.29172220	    -14.97011015	      1.24304151	     -6.56763901	     -7.98665309	    -33.02806925	     32.31589376	     97.78994264	     87.45092743	      0.00000000	      0.00000000	    -11.63882994	    -31.66087795	     84.20340300	      2.86317393	     85.68571881	      0.00000000	      0.00000000
      0.01331507	     -3.82833172	     -2.46465225	      2.96355596	      0.57212835	      0.95917789	      0.04565882	      6.51785284	     -1.40411607	    -14.81382812	     10.34977822	      6.47602164	      0.18063771	     10.67452242	     -9.24996598	     12.00672866	     33.39465461	     -5.09316737	     -2.77029712	     13.14501714	      5.09547410	      0.22942383	     18.05442552	      5.20158085	      0.17651669	    -14.98166072	      1.29669836	     -6.55627054	     -8.00445831	    -33.03130776	     32.29463667	     97.83378237	     87.44950359	      0.00000000	      0.00000000	    -11.63919782	    -31.66723469	     84.19714189	      2.84600076	     85.71554705	      0.00000000	      0.00000000
      0.01997260	     -3.85567069	     -2.53148163	      3.02713980	      0.57219546	      0.95910749	      0.04564370	      6.50259618	     -1.32569243	    -14.86100277	     10.27252935	      6.47602164	      0.17928946	     10.73855367	     -9.24573768	     12.27099719	     33.44900168	     -5.13772434	     -2.79139502	     13.18887151	      5.09547410	      0.23018923	     18.03298935	      4.12712525	      0.39743299	    -14.93350132	      1.37053344	     -6.58866365	     -8.03023353	    -33.04295096	     32.29731303	     97.83583859	     87.42626643	      0.00000000	      0.00000000	    -11.60379009	    -31.63443453	     84.15918113	      2.80850832	     85.69283531	      0.00000000	      0.00000000
      0.02663014	     -3.83472890	     -2.51745408	      2.99390235	      0.57215068	      0.95913647	      0.04573649	      6.50776299	     -1.33732829	    -14.83624864	     10.31804920	      6.47602164	      0.18008393	     10.67478479	     -9.25215973	     12.05371846	     33.39811103	     -5.15851359	     -2.88086239	     13.16108769	      5.09547410	      0.22970431	     18.00734432	      2.97128846	      0.43931655	    -14.98770706	      1.34876730	     -6.57050633	     -8.00820926	    -33.03326786	     32.29565902	     97.85868732	     87.42787238	      0.00000000	      0.00000000	    -11.65954681	    -31.68601800	     84.16458025	      2.82498272	     85.75788589	      0.00000000	      0.00000000
      0.03328767	     -3.85509673	     -2.52456259	      2.96734904	      0.57212488	      0.95909994	      0.04582471	      6.54119861	     -1.32289967	    -14.78787913	     10.33454965	      6.47602164	      0.18037192	     10.74477850	     -9.25327464	     12.32398964	     33.40626070	     -5.19357154	     -2.96683804	     13.15783412	      5.09547410	      0.22964753	     17.96767772	      1.78002858	      0.73139837	    -14.98261420	      1.34827461	     -6.49836428	     -8.09067067	    -33.02754825	     32.20430786	     97.91710103	     87.46699856	      0.00000000	      0.00000000	    -11.60556361	    -31.72042033	     84.30534552	      2.86044837	     85.66730163	      0.00000000	      0.00000000
      0.03994521	     -3.85217332	     -2.59673658	      3.02898630	      0.57214695	      0.95905005	      0.04594398	      6.50549911	     -1.22203989	    -14.80542497	     10.27373311	      6.47602164	      0.17931047	     10.80734032	     -9.25516339	     12.46059897	     33.43421808	     -5.26866379	     -3.02753006	     13.20840939	      5.09547410	      0.23053023	     17.98657528	      0.75795172	      0.99102406	    -14.98365396	      1.41506999	     -6.57738413	     -8.03069204	    -33.02339575	     32.26114391	     97.92758884	     87.40410040	      0.00000000	      0.00000000	    -11.67224611	    -31.72988574	     84.18408709	      2.83679289	     85.76233194	      0.00000000	      0.00000000
